# xmcd CD database file
#
# Track frame offsets:
#	150
#	17672
#	36840
#	55077
#	72980
#	91727
#	109797
#	124582
#	141050
#	155507
#
# Disc length: 2338 seconds
#
# Revision: 1
# Processed by: cddbd v1.5.2PL0 Copyright (c) Steve Scherf et al.
# Submitted via: CDex 1.51
#
DISCID=7c09200a
DTITLE=Straitjacket Fits - Hail
DYEAR=1988
DGENRE=Alt Rock
TTITLE0=Dialing a Prayer
TTITLE1=All That That Brings
TTITLE2=Hail
TTITLE3=Sparkle that Shines
TTITLE4=She Speeds
TTITLE5=So Long Marianne
TTITLE6=Grate
TTITLE7=Fabulous Things
TTITLE8=Life in One Chord
TTITLE9=This Taste Delight
EXTD=YEAR: 1988
EXTT0=
EXTT1=
EXTT2=
EXTT3=
EXTT4=
EXTT5=
EXTT6=
EXTT7=
EXTT8=
EXTT9=
PLAYORDER=
